inDegrees=yes
name=ik_S44_A12_T01
DataType=double
version=3
OpenSimVersion=4.3-2021-08-27-4bc7ad9
endheader
time	pelvis_tilt	pelvis_list	pelvis_rotation	pelvis_tx	pelvis_ty	pelvis_tz	hip_flexion_r	hip_adduction_r	hip_rotation_r	knee_angle_r	knee_angle_r_beta	ankle_angle_r	subtalar_angle_r	mtp_angle_r	hip_flexion_l	hip_adduction_l	hip_rotation_l	knee_angle_l	knee_angle_l_beta	ankle_angle_l	subtalar_angle_l	mtp_angle_l	lumbar_extension	lumbar_bending	lumbar_rotation	arm_flex_r	arm_add_r	arm_rot_r	elbow_flex_r	pro_sup_r	wrist_flex_r	wrist_dev_r	arm_flex_l	arm_add_l	arm_rot_l	elbow_flex_l	pro_sup_l	wrist_flex_l	wrist_dev_l
0	0	0	0	0	0.9399999999999999	0	0	0	0	0	0	0	0	0	0	0	0	0	0	0	0	0	0	0	0	0	0	0	0	89.99999999963507	0	0	0	0	0	0	89.99999999869995	0	0
0.02	-0.02468568251671532	-0.6493418660666651	33.98858785667453	0	0.9399999999999999	0	1.156410439368875	-0.5386817080135574	-0.3877589682531731	1.803162559606141	0.03147112361381566	0	0	0	1.156410439368875	-0.5386817080135574	-0.3877589682531731	1.803162559606141	0.03147112361381566	0	0	0	0.08676645661826068	-0.1022037934833074	16.53325435439984	2.897654996499301	-3.627404424725138	0.6420090851787568	3.5350050672191	102.2907614052028	0	0	2.448256516131501	0.2293301468005919	0.157090896392921	1.919223320729613	91.29448813225135	0	0
0.04	-0.02268448149682904	-0.6568011181362664	34.09076674624329	0	0.9399999999999999	0	1.627859001232767	-0.7493423749957939	-0.5641164583058318	2.106528651151665	0.03676586075019159	0	0	0	1.627859001232767	-0.7493423749957939	-0.5641164583058318	2.106528651151665	0.03676586075019159	0	0	0	0.08135397614189289	-0.1143464124288845	16.44739773231702	2.941781491314897	-3.61546616331071	0.6856225028394397	3.497274296696875	102.2751687630841	0	0	2.450395912461605	0.2019749084283528	0.1454182725770569	1.907931991973583	91.31386496332186	0	0
0.06	-0.02775446828604252	-0.644237782783632	34.29944845053848	0	0.9399999999999999	0	2.785688461497114	-1.27587090984719	-0.9792042301249204	3.152066198082248	0.05501393339735499	0	0	0	2.785688461497114	-1.27587090984719	-0.9792042301249204	3.152066198082248	0.05501393339735499	0	0	0	0.07953140916618617	-0.1141768811803017	16.25629307288403	2.964372361362474	-3.616372367630014	0.7062008036553913	3.472228173311949	102.3009031826837	0	0	2.427104865597701	0.2016550640820345	0.1313206289186933	1.928533750838443	91.35886144471418	0	0
0.08	-0.008104538548182241	-0.6338078202640668	34.77244114646005	0	0.9399999999999999	0	5.165516675437624	-2.295583405544739	-1.82795176639721	5.137813888630906	0.08967176871130257	0	0	0	5.165516675437624	-2.295583405544739	-1.82795176639721	5.137813888630906	0.08967176871130257	0	0	0	0.06992836519660489	-0.1158058824255892	15.81271607006914	2.987700633175606	-3.598765387721921	0.7044611504726219	3.43922953675681	102.3586261374455	0	0	2.409141447255029	0.1886461771615585	0.1522960096935478	1.924556887764951	91.34583329868273	0	0
0.1	-0.007812713142606793	-0.6436408474658228	34.81483630045933	0	0.9399999999999999	0	5.361719328357715	-2.372855770115855	-1.895306945593724	5.293946406946702	0.09239679522534357	0	0	0	5.361719328357715	-2.372855770115855	-1.895306945593724	5.293946406946702	0.09239679522534357	0	0	0	0.06344419212883456	-0.1259670698963402	15.78705611337951	3.016070729109026	-3.583483911758552	0.6873806239678211	3.434014948088986	102.4159790069514	0	0	2.399903546117184	0.1755699783071103	0.1636912916190959	1.910911698660938	91.37940105882386	0	0
0.12	-0.003680915792126223	-0.6349373606818383	34.94506147343634	0	0.9399999999999999	0	5.868028307968042	-2.581140996184206	-2.068243642844026	5.754664377932805	0.1004378407421588	0	0	0	5.868028307968042	-2.581140996184206	-2.068243642844026	5.754664377932805	0.1004378407421588	0	0	0	0.06806270562990095	-0.1247693852403713	15.68567531408551	3.032017951427583	-3.599994589705582	0.6576326886345253	3.418431829627341	102.4934011802943	0	0	2.375350523208905	0.1785715840010581	0.1798628961784141	1.920370000462144	91.40218482877783	0	0
0.14	-0.001877021931594353	-0.6476497776892668	35.30059327356776	0	0.9399999999999999	0	7.228476171197673	-3.126252863668137	-2.526721724814634	7.0303782510851	0.1227032481420356	0	0	0	7.228476171197673	-3.126252863668137	-2.526721724814634	7.0303782510851	0.1227032481420356	0	0	0	0.04521609651997519	-0.1216399740824787	15.35011339032738	3.084338293584008	-3.618241974732696	0.6349763557632228	3.417548501546084	102.5567362790851	0	0	2.417573279298625	0.1620611584406644	0.2166324812197278	1.897545579402726	91.4286317523556	0	0
0.16	0.0100913877719106	-0.6365340297294458	35.40782903809317	0	0.9399999999999999	0	7.591338072304389	-3.26507784506336	-2.64667439254005	7.363407189890501	0.1285156996286126	0	0	0	7.591338072304389	-3.26507784506336	-2.64667439254005	7.363407189890501	0.1285156996286126	0	0	0	0.05892776648780243	-0.1231718384070942	15.28076127999369	3.054250441471426	-3.60371876094208	0.6218181896551378	3.435431232623323	102.507688603784	0	0	2.376238573294894	0.1636863635608336	0.2616903381482196	1.895623335227882	91.40733240322926	0	0
0.18	0.007304964909300915	-0.643056276150009	35.48803323919192	0	0.9399999999999999	0	7.910804823649864	-3.385701048372074	-2.751590667426094	7.657972814399413	0.1336568396394864	0	0	0	7.910804823649864	-3.385701048372074	-2.751590667426094	7.657972814399413	0.1336568396394864	0	0	0	0.05055743452415667	-0.1291867284166626	15.21122421928796	3.094031208783794	-3.603629279225276	0.6300854035493151	3.414008537262031	102.525199693731	0	0	2.393972502656447	0.1773978745557631	0.2781585420722641	1.876650238643988	91.44553821499171	0	0
0.2	0.01562515573723202	-0.6405813973313065	35.5644656886403	0	0.9399999999999999	0	8.249516759231966	-3.513113897433205	-2.862299021167969	7.975422076868246	0.1391973744775952	0	0	0	8.249516759231966	-3.513113897433205	-2.862299021167969	7.975422076868246	0.1391973744775952	0	0	0	0.05644720430344571	-0.1351793682241427	15.14111984448243	3.062718158642066	-3.598018704412113	0.6644052108563	3.433807819569962	102.5089181960736	0	0	2.389782621066442	0.1661763069324211	0.2784147168335785	1.885287245367646	91.49244551796372	0	0
0.22	0.02752167840584129	-0.644370766151123	35.71858443859544	0	0.9399999999999999	0	9.234974669501312	-3.89317054904378	-3.183235671339004	8.970881424299465	0.1565714176600241	0	0	0	9.234974669501312	-3.89317054904378	-3.183235671339004	8.970881424299465	0.1565714176600241	0	0	0	0.05833300823032125	-0.1483897563855224	14.96916235562133	3.076561075929821	-3.586048599563868	0.6783489564910535	3.517171890563628	102.5508847321683	0	0	2.396145644230089	0.139810499703978	0.2348667875687136	1.866500151120543	91.60128750013376	0	0
0.24	0.0384617191912258	-0.6353966657452162	35.73966680823709	0	0.9399999999999999	0	9.491782787983643	-3.985292620814974	-3.265142425818342	9.216894370796805	0.1608651535789353	0	0	0	9.491782787983643	-3.985292620814974	-3.265142425818342	9.216894370796805	0.1608651535789353	0	0	0	0.07123176872494062	-0.1508466596814722	14.92898951734393	3.044169635229116	-3.570788186860721	0.6791585937259872	3.53978921769875	102.5410165798437	0	0	2.365849861346739	0.1562549771248247	0.218857269358498	1.819775060161266	91.59366033171165	0	0
0.26	0.05486091194865964	-0.6484342285953459	35.74387607248327	0	0.9399999999999999	0	9.766985958678356	-4.085896370540009	-3.35294425384039	9.490766850393063	0.165645130078491	0	0	0	9.766985958678356	-4.085896370540009	-3.35294425384039	9.490766850393063	0.165645130078491	0	0	0	0.0748812183871132	-0.1736713580830448	14.86234283731372	3.063526257918272	-3.547494551748153	0.7102935221799805	3.573404525653131	102.5717932996139	0	0	2.336202014651056	0.1207995166911238	0.1176968495998183	1.856187980899203	91.58004577339601	0	0
0.28	0.05341882201751622	-0.6587416218570993	35.75678699539915	0	0.9399999999999999	0	10.00452194298384	-4.173480852938653	-3.428654400030865	9.732525674851701	0.1698646175610453	0	0	0	10.00452194298384	-4.173480852938653	-3.428654400030865	9.732525674851701	0.1698646175610453	0	0	0	0.06657123530267763	-0.1849244354393169	14.82968243267189	3.101513095988437	-3.53779994146762	0.7133200371199508	3.544138418700869	102.6050479770781	0	0	2.354053361746545	0.1040926978738008	0.09421916091655738	1.879367700909401	91.58206724335062	0	0
0.3	0.06138422168045107	-0.6708939710119206	35.78239094680687	0	0.9399999999999999	0	10.25592850733297	-4.262358250803182	-3.507832202360562	9.980230937931163	0.1741878899763006	0	0	0	10.25592850733297	-4.262358250803182	-3.507832202360562	9.980230937931163	0.1741878899763006	0	0	0	0.06344431172008656	-0.2013715969674088	14.77148433544382	3.10464938402928	-3.524463113917988	0.7244189741339817	3.59020493558778	102.5628310429134	0	0	2.341636100343436	0.07458258219539653	0.02935992388322465	1.900999150959798	91.61955156988661	0	0
0.32	0.06405783087282717	-0.6685471781937709	35.81110567722089	0	0.9399999999999999	0	10.5173327921077	-4.355891993342636	-3.589981127608417	10.24777224708539	0.1788573667061379	0	0	0	10.5173327921077	-4.355891993342636	-3.589981127608417	10.24777224708539	0.1788573667061379	0	0	0	0.06380783098088084	-0.2010659622311845	14.74112119729265	3.105150758721912	-3.530473376074867	0.7240640030888225	3.516639986652294	102.6212973591739	0	0	2.333699373676752	0.06971356768785096	0.008325976958286366	1.882881193234046	91.78361458095877	0	0
0.34	0.0806053008728006	-0.6877254655927241	35.79435695520143	0	0.9399999999999999	0	10.77982733111149	-4.446033505996283	-3.671638398207099	10.50633487347593	0.1833701358592568	0	0	0	10.77982733111149	-4.446033505996283	-3.671638398207099	10.50633487347593	0.1833701358592568	0	0	0	0.06362046433580838	-0.2280481286664832	14.66215655655022	3.137982365731612	-3.497435868729524	0.8425940321629855	3.529873798346901	102.5634824566302	0	0	2.325083638034276	0.03497170442347597	-0.1055175586202182	1.860880260994557	91.75375000417338	0	0
0.36	0.08790919490158115	-0.689034756389494	35.76538902304473	0	0.9399999999999999	0	11.04525109119605	-4.539001890519523	-3.754358627441868	10.77489865887324	0.1880574581660594	0	0	0	11.04525109119605	-4.539001890519523	-3.754358627441868	10.77489865887324	0.1880574581660594	0	0	0	0.06684542278455713	-0.2360204643177793	14.57805800326744	3.144501464110045	-3.488015300056714	0.9255152283614568	3.534774671860189	102.5786433560613	0	0	2.306713260816997	0.02178091206596681	-0.1975720379861743	1.883331153783154	91.75019165451984	0	0
0.3800000000000001	0.08484582291335459	-0.697478949321897	35.75510223438525	0	0.9399999999999999	0	11.34319220087196	-4.646103365504842	-3.847544807626794	11.08672745088006	0.1934998972890949	0	0	0	11.34319220087196	-4.646103365504842	-3.847544807626794	11.08672745088006	0.1934998972890949	0	0	0	0.05742692834056992	-0.2440500947247584	14.49841145732422	3.150079688136061	-3.497172946438294	1.017740450379383	3.684780324365985	102.5643624368569	0	0	2.291622876233456	0.01103441125535729	-0.225191096414669	2.037544640340504	91.79042679899716	0	0
0.4000000000000001	0.1009447847255079	-0.6956055781775595	35.66468517217992	0	0.9399999999999999	0	11.35192010723324	-4.650050226647516	-3.850448043778814	11.09788802094209	0.1936946859830769	0	0	0	11.35192010723324	-4.650050226647516	-3.850448043778814	11.09788802094209	0.1936946859830769	0	0	0	0.07108629329018115	-0.251758474393021	14.45244655328856	3.158565937326141	-3.459842644445958	1.101596714917031	3.532624546228602	102.6478426149854	0	0	2.27180942553665	0.02251992615296655	-0.3063249667011569	1.91812631974254	91.76061812356625	0	0
